<svg width="24" height="24" viewBox="0 0 24 24" fill="none" xmlns="http://www.w3.org/2000/svg">
<path d="M11.9645 4.85955C13.3768 4.85955 14.7573 5.27834 15.9316 6.06294C17.1058 6.84755 18.021 7.96275 18.5615 9.2675C19.1019 10.5723 19.2433 12.008 18.9678 13.3931C18.6923 14.7782 18.0122 16.0505 17.0136 17.0491C16.015 18.0478 14.7427 18.7278 13.3576 19.0033C11.9724 19.2789 10.5367 19.1375 9.23197 18.597C7.92722 18.0566 6.81202 17.1413 6.02742 15.9671C5.24281 14.7928 4.82403 13.4123 4.82403 12C4.83134 10.1085 5.58599 8.29656 6.92351 6.95904C8.26103 5.62152 10.073 4.86687 11.9645 4.85955ZM11.9645 3.27278C10.24 3.27983 8.55616 3.79767 7.12568 4.76091C5.69519 5.72416 4.58215 7.08962 3.92707 8.68493C3.272 10.2802 3.10426 12.0339 3.44502 13.7244C3.78579 15.415 4.61978 16.9667 5.84172 18.1837C7.06366 19.4006 8.61876 20.2283 10.3107 20.5621C12.0026 20.896 13.7556 20.7211 15.3482 20.0595C16.9408 19.3979 18.3017 18.2793 19.2591 16.8449C20.2165 15.4105 20.7275 13.7246 20.7275 12C20.7275 10.851 20.5006 9.71318 20.0598 8.652C19.619 7.59083 18.9729 6.62715 18.1587 5.81628C17.3445 5.00541 16.3782 4.36331 15.3153 3.92683C14.2523 3.49035 13.1136 3.26808 11.9645 3.27278Z" fill="#4EA8DE"/>
</svg>
